<svg xmlns="http://www.w3.org/2000/svg" width="16" height="11" viewBox="0 0 16 11">
    <g fill="none" fill-rule="evenodd">
        <g fill="#333" fill-rule="nonzero">
            <g>
                <path d="M17.258 28.33l4.412 4.412c.345.344.903.344 1.248 0l4.412-4.412c.344-.345.344-.903 0-1.248-.345-.345-.903-.345-1.248 0l-2.906 2.905V18.882c0-.487-.395-.882-.882-.882s-.882.395-.882.882v11.105l-2.906-2.905c-.172-.172-.398-.258-.624-.258-.225 0-.451.086-.624.258-.344.345-.344.903 0 1.248z" transform="translate(-14 -75) translate(0 55) rotate(90 22.294 25.5)"/>
            </g>
        </g>
    </g>
</svg>
