<svg xmlns="http://www.w3.org/2000/svg" width="10" height="10" viewBox="0 0 10 10">
    <g fill="none" fill-rule="evenodd">
        <g>
            <g>
                <g>
                    <path fill="#84D2FF" d="M6.005 2.096c-.262-.262-.687-.262-.95 0l-.237.238-3.323 3.324.001.001-.105.105S1.057 6.1.303 8.533l-.016.05-.04.134-.037.12-.031.104-.073.244c-.054.184-.187.598-.037.748.144.145.563.018.746-.037l.243-.072.108-.033.114-.035.14-.043.04-.012c2.316-.721 2.732-1.06 2.766-1.09l.003-.003.108-.107.007.007 3.323-3.325.237-.237c.263-.262.263-.688 0-.95l-1.899-1.9z" transform="translate(-1275 -135) translate(1261 127) translate(14 8)"/>
                    <path fill="#FFF" d="M3.847 8.179l-.011.007-.008.005-.009.005-.01.006c-.11.066-.434.237-1.222.522l-.297.104-1.12-1.12.106-.299c.285-.79.455-1.115.52-1.225l.005-.008.007-.01.005-.008.007-.01.082-.083 2.029 2.03-.084.084z" transform="translate(-1275 -135) translate(1261 127) translate(14 8)"/>
                    <path fill="#0696E8" d="M9.803 2.096L7.904.196c-.262-.262-.687-.262-.95 0L6.48.673c-.262.262-.262.687 0 .95l1.9 1.9c.261.261.686.261.949 0l.474-.476c.263-.262.263-.687 0-.95z" transform="translate(-1275 -135) translate(1261 127) translate(14 8)"/>
                </g>
            </g>
        </g>
    </g>
</svg>
