<svg xmlns="http://www.w3.org/2000/svg" width="16" height="16" viewBox="0 0 16 16">
    <g fill="#D74E4E" fill-rule="evenodd">
        <path d="M1.577 1.886c.645-.638 1.684-.638 2.33 0L15.552 13.41c.636.63.641 1.656.012 2.293l-.012.012c-.646.638-1.684.638-2.33 0L1.577 4.19C.94 3.56.935 2.535 1.565 1.898l.012-.012z" opacity=".6" transform="translate(-.8 -.8)"/>
        <path d="M15.553 1.886c.636.63.641 1.656.012 2.293l-.012.012L3.906 15.714c-.645.638-1.684.638-2.33 0-.636-.63-.641-1.656-.011-2.293l.012-.012L13.223 1.886c.646-.638 1.684-.638 2.33 0z" transform="translate(-.8 -.8)"/>
    </g>
</svg>
