<svg xmlns="http://www.w3.org/2000/svg" width="16" height="9" viewBox="0 0 25 17">
    <g fill="none" fill-rule="evenodd">
        <path fill="#84D2FF" d="M12.5 0C6.818 0 1.966 3.525 0 8.5 1.966 13.475 6.818 17 12.5 17S23.034 13.475 25 8.5C23.034 3.525 18.182 0 12.5 0z"/>
        <path fill="#FFF" d="M12.5 14A5.502 5.502 0 0 1 7 8.5C7 5.464 9.464 3 12.5 3S18 5.464 18 8.5 15.536 14 12.5 14z"/>
        <path fill="#0696E8" d="M12.5 5A3.495 3.495 0 0 0 9 8.5c0 1.937 1.563 3.5 3.5 3.5S16 10.437 16 8.5 14.437 5 12.5 5z"/>
    </g>
</svg>
