<svg xmlns="http://www.w3.org/2000/svg" width="16" height="16" viewBox="0 0 16 16">
    <g fill="none" fill-rule="evenodd">
        <path fill="#84D2FF" d="M9.608 3.354c-.42-.42-1.1-.42-1.519 0l-.38.38-5.317 5.32h.002l-.168.169s-.534.537-1.74 4.43c-.01.027-.018.054-.026.081l-.065.213-.06.193c-.016.055-.032.11-.05.165l-.116.391c-.086.294-.298.957-.059 1.197.231.231.901.028 1.195-.059l.388-.116.172-.052.183-.056.223-.069.065-.02c3.706-1.153 4.37-1.694 4.426-1.744l.005-.004.171-.172.012.012 5.317-5.32.38-.38c.42-.42.42-1.1 0-1.52L9.608 3.355z"/>
        <path fill="#FFF" d="M6.155 13.086l-.018.011-.012.008-.015.01-.014.008c-.177.106-.696.379-1.956.835-.147.053-.308.11-.476.167l-1.79-1.791c.058-.17.114-.33.168-.479.455-1.264.728-1.785.833-1.961l.007-.012.01-.017.008-.012.012-.018.13-.13 3.247 3.247-.134.134z"/>
        <path fill="#0696E8" d="M15.685 3.354L12.647.314c-.42-.419-1.1-.419-1.52 0l-.759.76c-.42.42-.42 1.1 0 1.52l3.039 3.04c.419.42 1.1.42 1.519 0l.76-.76c.419-.42.419-1.1 0-1.52z"/>
    </g>
</svg>
